# xmcd CD database file
#
# Track frame offsets:
#	150
#	13783
#	26563
#	45131
#	60313
#	73052
#	87990
#	104215
#	121683
#	135981
#	152908
#	166370
#
# Disc length: 2432 seconds
#
# Revision: 2
# Processed by: cddbd v1.5.2PL0 Copyright (c) Steve Scherf et al.
# Submitted via: CDex 1.79
#
DISCID=94097e0c
DTITLE=Becky Hobbs - From Oklahoma With Love
DYEAR=1998
DGENRE=Country
TTITLE0=From Oklahoma With Love
TTITLE1=Dance All Our Troubles Away
TTITLE2=Trust The Night
TTITLE3=Country Girls
TTITLE4=Yellow Pages Under Blue
TTITLE5=Don't Cry For Me
TTITLE6=Honky Tonk Saturday Night
TTITLE7=God's Gift To This Woman
TTITLE8=Rockin' and Rollin' and Raisin' Hell
TTITLE9=Runnin' On Dreams
TTITLE10=Don't Know When I'll Love Again Like This
TTITLE11=What Did I Do (To Deserve All This)
EXTD=YEAR: 1998
EXTT0=
EXTT1=
EXTT2=
EXTT3=
EXTT4=
EXTT5=
EXTT6=
EXTT7=
EXTT8=
EXTT9=
EXTT10=
EXTT11=
PLAYORDER=
